<?xml version="1.0" encoding="iso-8859-1"?>
<!-- Generator: Adobe Illustrator 19.0.0, SVG Export Plug-In . SVG Version: 6.00 Build 0)  -->
<svg version="1.1" id="Layer_1" xmlns="http://www.w3.org/2000/svg" xmlns:xlink="http://www.w3.org/1999/xlink" x="0px" y="0px"
	 viewBox="0 0 503.467 503.467" style="enable-background:new 0 0 503.467 503.467;" xml:space="preserve">
<g transform="translate(1 1)">
	<path style="fill:#ECF4F7;" d="M327.533,3.267v51.2V88.6H498.2V3.267H327.533z M173.933,54.467V88.6H3.267V3.267h170.667V54.467z"
		/>
	<g transform="translate(6)">
		<path style="fill:#AAB1BA;" d="M270.333,156.867L270.333,156.867c-8.533,0-17.067,0-25.6,0c-8.533,0-17.067,0-25.6,0.853v-0.853
			v-102.4v-25.6c0-14.507,11.093-25.6,25.6-25.6c14.507,0,25.6,11.093,25.6,25.6v25.6V156.867z M244.733,310.467
			c9.387,0,17.067,7.68,17.067,17.067s-7.68,17.067-17.067,17.067s-17.067-7.68-17.067-17.067S235.347,310.467,244.733,310.467z"/>
		<path style="fill:#FF7474;" d="M244.733,276.333c-108.373,0-196.267-26.453-196.267-59.733c0-30.72,74.24-55.467,170.667-58.88
			c8.533,0,17.067-0.853,25.6-0.853c8.533,0,17.067,0,25.6,0.853C366.76,161.987,441,186.733,441,216.6
			C441,249.88,353.107,276.333,244.733,276.333"/>
	</g>
</g>
<path style="fill:#51565F;" d="M251.733,503.467c-46.933,0-90.453-18.773-122.88-52.907c-1.707-1.707-1.707-4.267,0-5.973
	c1.707-1.707,4.267-1.707,5.973,0c29.867,32.427,71.68,49.493,116.053,49.493c43.52,0,85.333-17.92,116.053-49.493
	c1.707-1.707,4.267-1.707,5.973,0c1.707,1.707,1.707,4.267,0,5.973C341.333,484.693,297.813,503.467,251.733,503.467z
	 M251.733,452.267c-33.28,0-64-12.8-87.893-35.84c-1.707-1.707-1.707-4.267,0-5.973c1.707-1.707,4.267-1.707,5.973,0
	c21.333,21.333,50.347,34.133,81.067,34.133s59.733-11.947,81.067-34.133c1.707-1.707,4.267-1.707,5.973,0
	c1.707,1.707,1.707,4.267,0,5.973C315.733,439.467,285.013,452.267,251.733,452.267z M251.733,401.067
	c-19.627,0-37.547-7.68-51.2-21.333c-1.707-1.707-1.707-4.267,0-5.973c1.707-1.707,4.267-1.707,5.973,0
	c11.947,11.947,28.16,18.773,45.227,18.773s33.28-6.827,45.227-18.773c1.707-1.707,4.267-1.707,5.973,0
	c1.707,1.707,1.707,4.267,0,5.973C289.28,393.387,271.36,401.067,251.733,401.067z M251.733,349.867
	c-11.947,0-21.333-9.387-21.333-21.333c0-10.24,7.68-18.773,17.067-21.333v-89.6c0-2.56,1.707-4.267,4.267-4.267
	c2.56,0,4.267,1.707,4.267,4.267v89.6c9.387,1.707,17.067,10.24,17.067,21.333C273.067,340.48,263.68,349.867,251.733,349.867z
	 M251.733,315.733c-6.827,0-12.8,5.973-12.8,12.8s5.973,12.8,12.8,12.8c6.827,0,12.8-5.973,12.8-12.8
	S258.56,315.733,251.733,315.733z M285.867,280.747c-2.56,0-4.267-1.707-4.267-4.267c0-2.56,1.707-4.267,4.267-4.267
	c98.987-5.12,158.72-31.573,158.72-54.613c0-26.453-76.8-55.467-192-55.467s-192,29.013-192,55.467
	c0,23.04,58.88,49.493,157.867,54.613c2.56,0,4.267,2.56,4.267,4.267c0,2.56-2.56,4.267-4.267,4.267
	c-98.133-5.12-166.4-31.573-166.4-63.147c0-35.84,82.773-58.88,170.667-63.147V29.867C222.72,13.653,236.373,0,252.587,0
	s29.867,13.653,29.867,29.867v124.587C370.347,158.72,453.12,181.76,453.12,217.6C452.267,249.173,384,275.627,285.867,280.747
	L285.867,280.747z M251.733,153.6h21.333V29.867c0-11.947-9.387-21.333-21.333-21.333c-11.947,0-21.333,9.387-21.333,21.333V153.6
	H251.733z M499.2,93.867H328.533c-2.56,0-4.267-1.707-4.267-4.267V59.733h-12.8c-2.56,0-4.267-1.707-4.267-4.267
	c0-2.56,1.707-4.267,4.267-4.267h12.8V4.267c0-2.56,1.707-4.267,4.267-4.267H499.2c2.56,0,4.267,1.707,4.267,4.267V89.6
	C503.467,92.16,501.76,93.867,499.2,93.867z M332.8,85.333h162.133v-76.8H332.8V85.333z M174.933,93.867H4.267
	C1.707,93.867,0,92.16,0,89.6V4.267C0,1.707,1.707,0,4.267,0h170.667c2.56,0,4.267,1.707,4.267,4.267V51.2H192
	c2.56,0,4.267,1.707,4.267,4.267c0,2.56-1.707,4.267-4.267,4.267h-12.8V89.6C179.2,92.16,177.493,93.867,174.933,93.867z
	 M8.533,85.333h162.133v-76.8H8.533V85.333z"/>
<g>
</g>
<g>
</g>
<g>
</g>
<g>
</g>
<g>
</g>
<g>
</g>
<g>
</g>
<g>
</g>
<g>
</g>
<g>
</g>
<g>
</g>
<g>
</g>
<g>
</g>
<g>
</g>
<g>
</g>
</svg>
